<?xml version="1.0" encoding="iso-8859-1"?>
<!-- Uploaded to: SVG Repo, www.svgrepo.com, Generator: SVG Repo Mixer Tools -->
<svg height="800px" width="800px" version="1.1" id="Layer_1" xmlns="http://www.w3.org/2000/svg" xmlns:xlink="http://www.w3.org/1999/xlink" 
	 viewBox="0 0 511.999 511.999" xml:space="preserve">
<path style="fill:#D0A88E;" d="M420.364,255.999L420.364,255.999l-185.261-20.898L256,420.364
	c9.672,24.942,23.54,48.725,43.281,68.465c30.894,30.894,80.984,30.894,111.878,0c15.089-15.089,22.788-34.758,23.137-54.532
	c19.775-0.35,39.443-8.048,54.532-23.137c30.895-30.894,30.895-80.984,0-111.878C469.088,279.54,445.305,265.671,420.364,255.999z"
	/>
<path style="fill:#D0A88E;" d="M420.364,255.999c24.942-9.672,48.725-23.54,68.465-43.281c30.895-30.895,30.895-80.984,0-111.878
	c-15.089-15.089-34.757-22.788-54.532-23.137c-0.35-19.775-8.048-39.443-23.137-54.532c-30.894-30.894-80.984-30.894-111.878,0
	c-19.74,19.74-33.609,43.523-43.281,68.465l0,0l-20.898,164.363H420.364z"/>
<path style="fill:#D0A88E;" d="M91.637,255.999c-24.942,9.672-48.725,23.54-68.466,43.281c-30.894,30.895-30.894,80.984,0,111.878
	c15.089,15.089,34.757,22.788,54.532,23.137c0.35,19.775,8.048,39.443,23.137,54.532c30.895,30.895,80.984,30.895,111.878,0
	c19.741-19.741,33.609-43.524,43.281-68.465l0,0V235.101L91.637,255.999z"/>
<path style="fill:#D0A88E;" d="M256,91.636c-9.672-24.942-23.54-48.725-43.281-68.465c-30.895-30.894-80.984-30.894-111.878,0
	C85.752,38.259,78.053,57.928,77.703,77.702c-19.775,0.35-39.443,8.048-54.532,23.137c-30.894,30.894-30.894,80.984,0,111.878
	c19.741,19.741,43.524,33.61,68.466,43.282H256V91.636z"/>
<polygon style="fill:#B87552;" points="381.705,152.46 359.539,130.295 256,233.834 245.551,255.999 256,278.165 359.539,381.704 
	381.705,359.538 278.166,255.999 "/>
<polygon style="fill:#E2C2B0;" points="152.461,130.295 130.296,152.46 233.835,255.999 130.296,359.538 152.461,381.704 
	256,278.165 256,233.834 "/>
</svg>
