<svg xmlns="http://www.w3.org/2000/svg" viewBox="0 0 115.4 115.4" aria-hidden="true">
  <path fill="none" stroke="currentColor" stroke-width="1.7663" d="m77.6 75.7c-0.7 2.2-3.5 8.3-11.2 8.3h-2.7"/>
  <path fill="none" stroke="currentColor" stroke-width="1.7663" d="m61.9 86.2h-3.2c-1 0-1.7-0.7-1.7-1.9v-0.3c0-0.9 0.7-1.8 1.7-1.8h3.4c0.9 0 1.8 0.8 1.8 1.8v0.2c0 1.2-0.8 2-2 2z"/>
  <path fill="none" stroke="currentColor" stroke-width="1.7663" d="m77.6 58.3c0.1-0.8 0.2-1.7 0.2-2.6 0-10.6-8.4-21.2-20.1-21.2s-20.2 9.8-20.2 21.2c0 0.9 0.1 1.7 0.2 2.6"/>
  <path fill="none" stroke="currentColor" stroke-width="1.7663" d="m33.7 61c-0.4-1.8-0.6-3.6-0.6-5.3 0.1-12.7 9.5-25.2 24.6-25.2 12.7 0 24.4 10.5 24.4 25.1 0 1.7-0.2 3.6-0.5 5"/>
  <path fill="none" stroke="currentColor" stroke-width="1.7663" d="m75.3 58.2h0.8c3.4 0 6.9 2.6 6.9 6.8v4c0 3.5-3 6.8-6.9 6.9h-0.9c-2.2 0-3.6-1.7-3.6-3.7v-10.3c0-1.9 1.7-3.7 3.7-3.7z"/>
  <path fill="none" stroke="currentColor" stroke-width="1.7663" d="m40.1 58.2h-0.4c-3.4 0-7.4 2.2-7.4 6.9v4c0 3.2 2.8 6.8 6.8 6.8h0.8c2.5 0 3.9-1.7 3.9-3.7v-10.2c0.1-1.9-1.6-3.8-3.7-3.8z"/>
</svg>
