<svg xmlns="http://www.w3.org/2000/svg" viewBox="0 0 160 160">
<!-- SVG created with Arrow, by QuiverAI (https://quiver.ai) -->
  <style type="text/css">.cls-0 {fill:#F7F4EF;}
.cls-1 {fill:#EBE1D8;}
.cls-2 {fill:#9B745D;}</style>
  <path class="cls-1" d="m80 10c-38.7 0-70.3 31.3-70.3 70s30 69.7 69.9 70c38.9 0.3 71-29 70.7-69.9-0.2-38.6-31.8-70.1-70.3-70.1z"/>
  <path class="cls-2" d="m108.7 73.2-26.4-19.6c-1.4-0.8-3.3-0.8-4.7 0.1l-26.1 19.5c-1 0.7-1.5 1.8-1.5 3.1 0 2.7 3.3 4.8 5.9 3.1l2.5-1.8v25.4c0 2 1.6 3.6 3.7 3.6h11.4c0.5 0 0.8-0.3 0.8-0.8v-22h11.3v22.3c0 0.9 0.7 0.5 0.9 0.5h11.7c1.9 0 3.6-1.7 3.6-3.6v-25.4l2.5 1.7c2.7 1.9 5.8-0.4 5.8-3 0-1.3-0.5-2.4-1.4-3.1zm-3.4 4.7-3.8-2.6c-0.6-0.3-1.3 0-1.3 0.7v26.9c0 1.1-0.9 2-2 2h-10.9v-21.9c0-0.5-0.3-0.8-0.8-0.9h-13c-0.4 0-0.8 0.4-0.8 0.8v22h-10.6c-1.1 0-2-0.7-2-1.9v-27.1c0-0.6-0.8-1-1.3-0.6l-3.6 2.6c-1.7 1.3-3.7-0.3-3.6-1.7 0-0.6 0.3-1.2 0.9-1.6l26-19.6c0.8-0.6 2-0.9 3-0.2l26.1 19.8c0.5 0.3 0.9 1 0.9 1.7 0 1.2-1.7 2.8-3.2 1.6z"/>
</svg>
