<?xml version="1.0" encoding="iso-8859-1"?>
<!-- Uploaded to: SVG Repo, www.svgrepo.com, Generator: SVG Repo Mixer Tools -->
<svg fill="#c9855a" height="800px" width="800px" version="1.1" id="Layer_1" xmlns="http://www.w3.org/2000/svg" xmlns:xlink="http://www.w3.org/1999/xlink" 
	 viewBox="0 0 512.001 512.001" xml:space="preserve">
<g>
	<g>
		<path d="M509.283,358.312l-25.225-25.225c-13.492-13.491-29.037-24.016-46.338-31.393c22.971-30.875,35.492-68.473,35.492-107.223
			v-37.536c0-5.123-4.154-9.277-9.277-9.277h-37.536c-21.776,0-42.92,3.817-63.014,11.36c-6.721-35.362-23.657-67.348-49.411-93.103
			L262.561,14.5c-1.739-1.739-4.099-2.718-6.559-2.718c-2.46,0-4.82,0.977-6.559,2.718l-51.415,51.415
			c-25.754,25.754-42.69,57.741-49.412,93.103c-20.094-7.543-41.237-11.36-63.014-11.36H48.063c-5.123,0-9.277,4.154-9.277,9.277
			v37.536c0,38.75,12.523,76.348,35.492,107.223c-17.302,7.377-32.844,17.901-46.338,31.393L2.717,358.312
			c-3.623,3.623-3.623,9.496,0,13.119l25.225,25.225c27.966,27.966,65.148,43.367,104.697,43.367s76.732-15.401,104.697-43.367
			l9.388-9.388v103.674c0,5.123,4.154,9.277,9.277,9.277s9.277-4.154,9.277-9.277V387.267l9.387,9.387
			c27.966,27.966,65.148,43.367,104.697,43.367s76.732-15.401,104.697-43.367l25.225-25.225
			C512.906,367.808,512.906,361.935,509.283,358.312z M470.94,383.536c-24.461,24.461-56.984,37.933-91.577,37.933
			c-34.594,0-67.117-13.471-91.578-37.933l-25.225-25.225c-1.739-1.739-4.099-2.718-6.559-2.718c-2.46,0-4.82,0.977-6.559,2.718
			l-25.225,25.225c-24.461,24.461-56.984,37.933-91.578,37.933c-34.593,0-67.116-13.471-91.577-37.933L22.397,364.87l18.664-18.664
			c14.549-14.547,31.821-25.15,51.336-31.511c2.954-0.964,5.23-3.341,6.062-6.334s0.111-6.204-1.921-8.555
			C71.26,270.575,57.339,233.166,57.339,194.47v-28.259h28.26c23.192,0,45.573,4.822,66.522,14.33
			c2.688,1.221,5.799,1.089,8.374-0.356c2.575-1.445,4.308-4.03,4.668-6.96c4.411-35.951,20.312-68.522,45.98-94.191l44.856-44.855
			l44.855,44.855c25.669,25.67,41.569,58.241,45.98,94.191c0.36,2.932,2.093,5.516,4.668,6.96c2.577,1.445,5.686,1.577,8.374,0.356
			c20.949-9.51,43.33-14.33,66.522-14.33h28.259v28.259c0,38.696-13.922,76.106-39.199,105.337c-2.032,2.35-2.753,5.561-1.921,8.555
			s3.108,5.371,6.062,6.334c19.516,6.362,36.789,16.963,51.337,31.511l18.664,18.665L470.94,383.536z"/>
	</g>
</g>
<g>
	<g>
		<path d="M256,121.976c-5.123,0-9.277,4.154-9.277,9.277V276.4c0,5.123,4.154,9.277,9.277,9.277s9.277-4.154,9.277-9.277V131.253
			C265.277,126.13,261.124,121.976,256,121.976z"/>
	</g>
</g>
<g>
	<g>
		<path d="M402.895,224.547c-3.46-3.78-9.329-4.039-13.107-0.579c-30.952,28.332-62.13,47.358-92.671,56.551
			c-4.906,1.477-7.686,6.651-6.209,11.557c1.208,4.015,4.892,6.605,8.879,6.605c0.886,0,1.786-0.127,2.678-0.396
			c33.231-10.002,66.826-30.401,99.851-60.632C406.096,234.194,406.355,228.326,402.895,224.547z"/>
	</g>
</g>
<g>
	<g>
		<path d="M414.893,362.252c-29.705,0.658-74.196-17.102-119.076-47.492c-4.244-2.873-10.01-1.763-12.883,2.48
			c-2.873,4.243-1.763,10.01,2.48,12.884c47.051,31.861,94.687,50.699,127.998,50.699c0.633,0,1.265-0.007,1.889-0.021
			c5.122-0.113,9.183-4.356,9.07-9.479C424.261,366.2,420.021,362.153,414.893,362.252z"/>
	</g>
</g>
<g>
	<g>
		<path d="M214.884,280.519c-30.54-9.193-61.719-28.219-92.671-56.551c-3.78-3.46-9.647-3.201-13.106,0.579
			c-3.46,3.779-3.2,9.647,0.579,13.106c33.024,30.231,66.617,50.63,99.85,60.632c0.892,0.268,1.791,0.396,2.678,0.396
			c3.987,0,7.671-2.591,8.88-6.605C222.57,287.17,219.789,281.996,214.884,280.519z"/>
	</g>
</g>
<g>
	<g>
		<path d="M229.065,317.238c-2.872-4.24-8.641-5.351-12.883-2.479c-44.881,30.391-89.374,48.164-119.076,47.492
			c-0.07-0.001-0.139-0.002-0.208-0.002c-5.028,0-9.159,4.02-9.271,9.073c-0.113,5.122,3.948,9.366,9.07,9.479
			c0.626,0.014,1.253,0.021,1.889,0.021c33.312,0,80.949-18.84,127.998-50.699C230.828,327.248,231.938,321.48,229.065,317.238z"/>
	</g>
</g>
</svg>
