<svg xmlns="http://www.w3.org/2000/svg" viewBox="0 0 165 164">
<!-- SVG created with Arrow, by QuiverAI (https://quiver.ai) -->
  <style type="text/css">.cls-0 {fill:#FAF7F2;}
.cls-1 {fill:url(#SVGID_1_);}
.cls-2 {fill:none;stroke:#9B745D;stroke-width:1.9;stroke-linecap:round;stroke-miterlimit:10;}
.cls-3 {fill:none;stroke:#9B745D;stroke-width:1.9;stroke-linejoin:round;stroke-miterlimit:10;}</style>
  <linearGradient id="SVGID_1_" x1="82.4" x2="82.4" y1="154.1" y2="9.9" gradientUnits="userSpaceOnUse">
    <stop stop-color="#EEE1D6" offset="0"/>
    <stop stop-color="#EFDFD4" offset="1"/>
  </linearGradient>
  <path class="cls-1" d="m82.4 9.9c-39.6 0-72.9 31.7-72.9 72.1 0 39.6 30.4 72.1 68.3 72.1 41.1 1.5 77.5-28.1 77.5-72.1 0-37.6-31.2-72.1-72.9-72.1z"/>
  <path class="cls-2" d="m96.5 62.2h15.3c2.1 0 3.6 1.1 3.6 3.6l-0.1 36.4c0 1.9-1.4 3.4-3.4 3.4h-58.8c-2.1 0-3.8-1-3.8-3.4v-36.5c0-1.7 1.3-3.4 3.5-3.4h13.9"/>
  <path class="cls-2" d="m114.6 64-30.3 23.7c-1.3 0.9-2.9 1-4.1 0.1l-30-23.8"/>
  <line class="cls-2" x1="50.5" x2="74" y1="104.1" y2="83.5"/>
  <line class="cls-2" x1="114.2" x2="90.7" y1="103.9" y2="83.3"/>
  <path class="cls-3" d="m88.3 69.7c-1.4-0.8-1.7-0.8-2.8 0.3s-1 1-1.2 0.9c-1.8-0.5-5.3-3.6-6.4-5.7-0.5-0.9 2.5-1.7 1.4-3.6l-2.4-3.1c-0.7-1.4-1.8-1.1-3.9 1.4-1.2 1.5-0.9 2.5-0.2 4.3 2.5 5.9 8.9 11.2 14.4 12.1 1.8 0.3 2.8-0.4 4.2-2.4 0.9-1.4 0.6-1.9 0.2-2.2l-3.3-2z"/>
</svg>
