<svg xmlns="http://www.w3.org/2000/svg" viewBox="0 0 159.6 158.7">
<!-- SVG created with Arrow, by QuiverAI (https://quiver.ai) -->
  <style type="text/css">.cls-0 {fill:#FCF9F4;}
.cls-1 {fill:url(#SVGID_1_);}
.cls-2 {fill:#9B745D;}</style>
  <linearGradient id="SVGID_1_" x1="8.2" x2="151.6" y1="80.35" y2="80.35" gradientTransform="matrix(1 0 0 -1 0 159)" gradientUnits="userSpaceOnUse">
    <stop stop-color="#EFE6DD" offset="0"/>
    <stop stop-color="#EEE2DA" offset="1"/>
  </linearGradient>
  <path class="cls-1" d="m8.2 78.7c0-37.6 32.7-70.2 71.2-70.2 37-0.5 69.7 29.6 72.1 65.3 2.6 33.9-19.6 70.2-58.8 75.6-53.4 6.1-84.5-33.1-84.5-70.7z"/>
  <path class="cls-2" d="m79.8 43.6-0.5 0.4c-8.1 4.1-17.7 7.7-28.3 10l-0.7 0.2v0.7c-0.9 17.7 1.8 29.4 7.3 39.1s13.4 15.6 21.7 20.6l0.5 0.2 0.5-0.2c6.9-3.4 13.4-8.1 17.7-13.3 8.6-10.4 12.5-22.3 11.8-46.4v-0.6l-0.7-0.1c-8.7-1.7-20.4-5.8-28.7-10.2l-0.6-0.4zm0.2 2.1c8.1 3.9 17.8 7.5 27.6 10.4 0.7 22.9-2.7 33.4-11.2 42.9-4 4.6-9.5 9.1-16.4 13.6-8.1-4-15.2-9.6-19.8-17-5.3-8.4-8.7-19.4-8.1-39.5 8.9-1.7 18.5-5.1 27.9-10.4z"/>
  <path class="cls-2" d="m93.8 66.5-17.6 17.6-7.4-7.7c-1-1-2.5 0.4-1.9 1.3l8.7 8.8c0.5 0.5 1.1 0.7 1.6 0.1l18.1-18.6c0.9-0.7-0.6-2.5-1.5-1.5z"/>
</svg>
